<svg xmlns="http://www.w3.org/2000/svg" viewBox="0 0 305 305">
  <circle cx="152.5" cy="152.5" r="152.5" fill="white" />
  <svg
    xmlns="http://www.w3.org/2000/svg"
    viewBox="0 0 200 200"
    height="200"
    width="200"
    y="57.5"
    x="65"
    preserveAspectRatio="xMinYMin"
    style="overflow: visible;">
    <path
      d="M82.42-14.42h0a57.9,57.9,0,0,1,57.9,57.9v144.1a0,0,0,0,1,0,0h0a57.9,57.9,0,0,1-57.9-57.9V-14.42a0,0,0,0,1,0,0Z"
      transform="translate(247.46 123.7) rotate(157.4)"
      style="fill: #09090b;"></path>
    <path
      d="M65.6,143.92c-3.07-7.37-5.58-14.94-8-22.53a29.5,29.5,0,1,0-55,21A29.85,29.85,0,0,0,7,149.47a57.9,57.9,0,0,0,69,19.22Z"
      style="fill: #09090b;"></path>
  </svg>
</svg>
